<svg width="121" height="121" viewBox="0 0 121 121" fill="none" xmlns="http://www.w3.org/2000/svg">
<g filter="url(#filter0_d)">
<circle cx="60.5" cy="56.5" r="56.5" fill="#252424"/>
<path d="M114 56.5C114 67.7981 110.423 78.8062 103.782 87.9465L89.9423 77.8911C94.4597 71.6735 96.8927 64.1854 96.8927 56.5H114Z" fill="white"/>
<path d="M87.25 102.832C77.4656 108.481 66.1439 110.888 54.9077 109.707L56.6959 92.6933C64.3392 93.4967 72.0406 91.8597 78.6963 88.017L87.25 102.832Z" fill="white"/>
<path d="M33.75 102.832C23.9656 97.1833 16.2207 88.5817 11.6253 78.2604L27.2536 71.3022C30.3795 78.3232 35.6479 84.1743 42.3037 88.017L33.75 102.832Z" fill="white"/>
<path d="M7 56.5C7 45.2019 10.5767 34.1938 17.2176 25.0535L31.0577 35.1089C26.5403 41.3265 24.1073 48.8146 24.1073 56.5H7Z" fill="white"/>
<path d="M33.75 10.1676C43.5344 4.51859 54.8561 2.1121 66.0923 3.29308L64.3041 20.3067C56.6608 19.5033 48.9594 21.1403 42.3037 24.983L33.75 10.1676Z" fill="white"/>
<path d="M87.25 10.1676C97.0344 15.8167 104.779 24.4183 109.375 34.7396L93.7464 41.6978C90.6205 34.6768 85.3521 28.8257 78.6963 24.983L87.25 10.1676Z" fill="white"/>
<circle cx="60" cy="56" r="31.5" stroke="white"/>
<path d="M46.76 51.68C46.48 51.7867 46.04 51.9133 45.44 52.06C44.84 52.2067 44.3533 52.3067 43.98 52.36L43.78 51.24C44.46 51.0933 45.1533 50.8467 45.86 50.5C46.58 50.1533 47.18 49.7733 47.66 49.36H47.68L48.9 49.56V60.84L51.38 61.02V62H44.18V61.02L46.76 60.84V51.68ZM58.1486 62.18C56.4419 62.18 55.1619 61.5933 54.3086 60.42C53.4686 59.2333 53.0486 57.7067 53.0486 55.84C53.0486 54.5333 53.2886 53.3933 53.7686 52.42C54.2486 51.4333 54.9019 50.68 55.7286 50.16C56.5553 49.64 57.4619 49.38 58.4486 49.38C60.1819 49.38 61.4486 49.94 62.2486 51.06C63.0486 52.1667 63.4486 53.6867 63.4486 55.62C63.4486 56.9133 63.2153 58.06 62.7486 59.06C62.2953 60.0467 61.6619 60.8133 60.8486 61.36C60.0486 61.9067 59.1486 62.18 58.1486 62.18ZM58.2286 61.16C60.2153 61.16 61.2086 59.38 61.2086 55.82C61.2086 54.0867 60.9819 52.7533 60.5286 51.82C60.0886 50.8867 59.3419 50.42 58.2886 50.42C57.2619 50.42 56.5019 50.8667 56.0086 51.76C55.5153 52.64 55.2686 53.9067 55.2686 55.56C55.2686 57.2533 55.5019 58.6133 55.9686 59.64C56.4486 60.6533 57.2019 61.16 58.2286 61.16ZM71.0002 62.18C69.2935 62.18 68.0135 61.5933 67.1602 60.42C66.3202 59.2333 65.9002 57.7067 65.9002 55.84C65.9002 54.5333 66.1402 53.3933 66.6202 52.42C67.1002 51.4333 67.7535 50.68 68.5802 50.16C69.4068 49.64 70.3135 49.38 71.3002 49.38C73.0335 49.38 74.3002 49.94 75.1002 51.06C75.9002 52.1667 76.3002 53.6867 76.3002 55.62C76.3002 56.9133 76.0668 58.06 75.6002 59.06C75.1468 60.0467 74.5135 60.8133 73.7002 61.36C72.9002 61.9067 72.0002 62.18 71.0002 62.18ZM71.0802 61.16C73.0668 61.16 74.0602 59.38 74.0602 55.82C74.0602 54.0867 73.8335 52.7533 73.3802 51.82C72.9402 50.8867 72.1935 50.42 71.1402 50.42C70.1135 50.42 69.3535 50.8667 68.8602 51.76C68.3668 52.64 68.1202 53.9067 68.1202 55.56C68.1202 57.2533 68.3535 58.6133 68.8202 59.64C69.3002 60.6533 70.0535 61.16 71.0802 61.16Z" fill="white"/>
</g>
<defs>
<filter id="filter0_d" x="0" y="0" width="121" height="121" filterUnits="userSpaceOnUse" color-interpolation-filters="sRGB">
<feFlood flood-opacity="0" result="BackgroundImageFix"/>
<feColorMatrix in="SourceAlpha" type="matrix" values="0 0 0 0 0 0 0 0 0 0 0 0 0 0 0 0 0 0 127 0"/>
<feOffset dy="4"/>
<feGaussianBlur stdDeviation="2"/>
<feColorMatrix type="matrix" values="0 0 0 0 0 0 0 0 0 0 0 0 0 0 0 0 0 0 0.25 0"/>
<feBlend mode="normal" in2="BackgroundImageFix" result="effect1_dropShadow"/>
<feBlend mode="normal" in="SourceGraphic" in2="effect1_dropShadow" result="shape"/>
</filter>
</defs>
</svg>
