<svg width="121" height="121" viewBox="0 0 121 121" fill="none" xmlns="http://www.w3.org/2000/svg">
<g filter="url(#filter0_d)">
<circle cx="60.5" cy="56.5" r="56.5" fill="#874040"/>
<path d="M114 56.5C114 67.7981 110.423 78.8062 103.782 87.9465L89.9423 77.8911C94.4597 71.6735 96.8927 64.1854 96.8927 56.5H114Z" fill="white"/>
<path d="M87.25 102.832C77.4656 108.481 66.1439 110.888 54.9077 109.707L56.6959 92.6933C64.3392 93.4967 72.0406 91.8597 78.6963 88.017L87.25 102.832Z" fill="white"/>
<path d="M33.75 102.832C23.9656 97.1833 16.2207 88.5817 11.6253 78.2604L27.2536 71.3022C30.3795 78.3232 35.6479 84.1743 42.3037 88.017L33.75 102.832Z" fill="white"/>
<path d="M7 56.5C7 45.2019 10.5767 34.1938 17.2176 25.0535L31.0577 35.1089C26.5403 41.3265 24.1073 48.8146 24.1073 56.5H7Z" fill="white"/>
<path d="M33.75 10.1676C43.5344 4.51859 54.8561 2.1121 66.0923 3.29308L64.3041 20.3067C56.6608 19.5033 48.9594 21.1403 42.3037 24.983L33.75 10.1676Z" fill="white"/>
<path d="M87.25 10.1676C97.0344 15.8167 104.779 24.4183 109.375 34.7396L93.7464 41.6978C90.6205 34.6768 85.3521 28.8257 78.6963 24.983L87.25 10.1676Z" fill="white"/>
<circle cx="60" cy="56" r="31.5" stroke="white"/>
<path d="M52.76 51.68C52.48 51.7867 52.04 51.9133 51.44 52.06C50.84 52.2067 50.3533 52.3067 49.98 52.36L49.78 51.24C50.46 51.0933 51.1533 50.8467 51.86 50.5C52.58 50.1533 53.18 49.7733 53.66 49.36H53.68L54.9 49.56V60.84L57.38 61.02V62H50.18V61.02L52.76 60.84V51.68ZM64.1486 62.18C62.4419 62.18 61.1619 61.5933 60.3086 60.42C59.4686 59.2333 59.0486 57.7067 59.0486 55.84C59.0486 54.5333 59.2886 53.3933 59.7686 52.42C60.2486 51.4333 60.9019 50.68 61.7286 50.16C62.5553 49.64 63.4619 49.38 64.4486 49.38C66.1819 49.38 67.4486 49.94 68.2486 51.06C69.0486 52.1667 69.4486 53.6867 69.4486 55.62C69.4486 56.9133 69.2153 58.06 68.7486 59.06C68.2953 60.0467 67.6619 60.8133 66.8486 61.36C66.0486 61.9067 65.1486 62.18 64.1486 62.18ZM64.2286 61.16C66.2153 61.16 67.2086 59.38 67.2086 55.82C67.2086 54.0867 66.9819 52.7533 66.5286 51.82C66.0886 50.8867 65.3419 50.42 64.2886 50.42C63.2619 50.42 62.5019 50.8667 62.0086 51.76C61.5153 52.64 61.2686 53.9067 61.2686 55.56C61.2686 57.2533 61.5019 58.6133 61.9686 59.64C62.4486 60.6533 63.2019 61.16 64.2286 61.16Z" fill="white"/>
</g>
<defs>
<filter id="filter0_d" x="0" y="0" width="121" height="121" filterUnits="userSpaceOnUse" color-interpolation-filters="sRGB">
<feFlood flood-opacity="0" result="BackgroundImageFix"/>
<feColorMatrix in="SourceAlpha" type="matrix" values="0 0 0 0 0 0 0 0 0 0 0 0 0 0 0 0 0 0 127 0"/>
<feOffset dy="4"/>
<feGaussianBlur stdDeviation="2"/>
<feColorMatrix type="matrix" values="0 0 0 0 0 0 0 0 0 0 0 0 0 0 0 0 0 0 0.25 0"/>
<feBlend mode="normal" in2="BackgroundImageFix" result="effect1_dropShadow"/>
<feBlend mode="normal" in="SourceGraphic" in2="effect1_dropShadow" result="shape"/>
</filter>
</defs>
</svg>
