<svg width="121" height="121" viewBox="0 0 121 121" fill="none" xmlns="http://www.w3.org/2000/svg">
<g filter="url(#filter0_d)">
<circle cx="60.5" cy="56.5" r="56.5" fill="#544476"/>
<path d="M114 56.5C114 67.7981 110.423 78.8062 103.782 87.9465L89.9423 77.8911C94.4597 71.6735 96.8927 64.1854 96.8927 56.5H114Z" fill="white"/>
<path d="M87.25 102.832C77.4656 108.481 66.1439 110.888 54.9077 109.707L56.6959 92.6933C64.3392 93.4967 72.0406 91.8597 78.6963 88.017L87.25 102.832Z" fill="white"/>
<path d="M33.75 102.832C23.9656 97.1833 16.2207 88.5817 11.6253 78.2604L27.2536 71.3022C30.3795 78.3232 35.6479 84.1743 42.3037 88.017L33.75 102.832Z" fill="white"/>
<path d="M7 56.5C7 45.2019 10.5767 34.1938 17.2176 25.0535L31.0577 35.1089C26.5403 41.3265 24.1073 48.8146 24.1073 56.5H7Z" fill="white"/>
<path d="M33.75 10.1676C43.5344 4.51859 54.8561 2.1121 66.0923 3.29308L64.3041 20.3067C56.6608 19.5033 48.9594 21.1403 42.3037 24.983L33.75 10.1676Z" fill="white"/>
<path d="M87.25 10.1676C97.0344 15.8167 104.779 24.4183 109.375 34.7396L93.7464 41.6978C90.6205 34.6768 85.3521 28.8257 78.6963 24.983L87.25 10.1676Z" fill="white"/>
<circle cx="60" cy="56" r="31.5" stroke="white"/>
<path d="M49.94 61.16C51.1667 60.4667 52.2933 59.6733 53.32 58.78C54.3467 57.8733 55.16 56.94 55.76 55.98C56.3733 55.02 56.68 54.1133 56.68 53.26C56.68 52.5267 56.46 51.9467 56.02 51.52C55.58 51.08 54.9533 50.86 54.14 50.86C53.38 50.86 52.7267 51.0133 52.18 51.32C51.6333 51.6133 51.1267 51.98 50.66 52.42L50.02 51.52C50.4867 50.9733 51.1533 50.48 52.02 50.04C52.8867 49.5867 53.8133 49.36 54.8 49.36C55.7333 49.36 56.52 49.5333 57.16 49.88C57.8 50.2133 58.2733 50.6533 58.58 51.2C58.8867 51.7467 59.04 52.3467 59.04 53C59.04 54.32 58.4067 55.68 57.14 57.08C55.8733 58.4667 54.2867 59.7133 52.38 60.82L58.58 60.36L59.28 58.64L60.3 58.84L59.78 62H50.24L49.94 61.16ZM67.2931 62.18C65.5865 62.18 64.3065 61.5933 63.4531 60.42C62.6131 59.2333 62.1931 57.7067 62.1931 55.84C62.1931 54.5333 62.4331 53.3933 62.9131 52.42C63.3931 51.4333 64.0465 50.68 64.8731 50.16C65.6998 49.64 66.6065 49.38 67.5931 49.38C69.3265 49.38 70.5931 49.94 71.3931 51.06C72.1931 52.1667 72.5931 53.6867 72.5931 55.62C72.5931 56.9133 72.3598 58.06 71.8931 59.06C71.4398 60.0467 70.8065 60.8133 69.9931 61.36C69.1931 61.9067 68.2931 62.18 67.2931 62.18ZM67.3731 61.16C69.3598 61.16 70.3531 59.38 70.3531 55.82C70.3531 54.0867 70.1265 52.7533 69.6731 51.82C69.2331 50.8867 68.4865 50.42 67.4331 50.42C66.4065 50.42 65.6465 50.8667 65.1531 51.76C64.6598 52.64 64.4131 53.9067 64.4131 55.56C64.4131 57.2533 64.6465 58.6133 65.1131 59.64C65.5931 60.6533 66.3465 61.16 67.3731 61.16Z" fill="white"/>
</g>
<defs>
<filter id="filter0_d" x="0" y="0" width="121" height="121" filterUnits="userSpaceOnUse" color-interpolation-filters="sRGB">
<feFlood flood-opacity="0" result="BackgroundImageFix"/>
<feColorMatrix in="SourceAlpha" type="matrix" values="0 0 0 0 0 0 0 0 0 0 0 0 0 0 0 0 0 0 127 0"/>
<feOffset dy="4"/>
<feGaussianBlur stdDeviation="2"/>
<feColorMatrix type="matrix" values="0 0 0 0 0 0 0 0 0 0 0 0 0 0 0 0 0 0 0.25 0"/>
<feBlend mode="normal" in2="BackgroundImageFix" result="effect1_dropShadow"/>
<feBlend mode="normal" in="SourceGraphic" in2="effect1_dropShadow" result="shape"/>
</filter>
</defs>
</svg>
