<svg width="121" height="121" viewBox="0 0 121 121" fill="none" xmlns="http://www.w3.org/2000/svg">
<g filter="url(#filter0_d)">
<circle cx="60.5" cy="56.5" r="56.5" fill="#1C487B"/>
<path d="M114 56.5C114 67.7981 110.423 78.8062 103.782 87.9465L89.9423 77.8911C94.4597 71.6735 96.8927 64.1854 96.8927 56.5H114Z" fill="white"/>
<path d="M87.25 102.832C77.4656 108.481 66.1439 110.888 54.9077 109.707L56.6959 92.6933C64.3392 93.4967 72.0406 91.8597 78.6963 88.017L87.25 102.832Z" fill="white"/>
<path d="M33.75 102.832C23.9656 97.1833 16.2207 88.5817 11.6253 78.2604L27.2536 71.3022C30.3795 78.3232 35.6479 84.1743 42.3037 88.017L33.75 102.832Z" fill="white"/>
<path d="M7 56.5C7 45.2019 10.5767 34.1938 17.2176 25.0535L31.0577 35.1089C26.5403 41.3265 24.1073 48.8146 24.1073 56.5H7Z" fill="white"/>
<path d="M33.75 10.1676C43.5344 4.51859 54.8561 2.1121 66.0923 3.29308L64.3041 20.3067C56.6608 19.5033 48.9594 21.1403 42.3037 24.983L33.75 10.1676Z" fill="white"/>
<path d="M87.25 10.1676C97.0344 15.8167 104.779 24.4183 109.375 34.7396L93.7464 41.6978C90.6205 34.6768 85.3521 28.8257 78.6963 24.983L87.25 10.1676Z" fill="white"/>
<circle cx="60" cy="56" r="31.5" stroke="white"/>
<path d="M48.88 63.12C49.2533 63.16 49.6533 63.18 50.08 63.18C51.0267 63.18 51.8933 62.9867 52.68 62.6C53.4667 62.2133 54.0867 61.68 54.54 61C54.9933 60.32 55.22 59.5467 55.22 58.68C55.22 56.5333 54.2267 55.46 52.24 55.46C51.8 55.46 51.3067 55.5267 50.76 55.66C50.2267 55.78 49.76 55.9267 49.36 56.1L48.82 55.72L49.8 48.52H55.5L55.7 48.14H56.94L56.58 50.2H51.28L50.36 54.86C50.72 54.6733 51.18 54.5067 51.74 54.36C52.3 54.2133 52.86 54.14 53.42 54.14C54.7 54.14 55.7067 54.5 56.44 55.22C57.1733 55.94 57.54 56.9867 57.54 58.36C57.54 59.4133 57.2333 60.3867 56.62 61.28C56.02 62.1733 55.1667 62.8867 54.06 63.42C52.9533 63.9533 51.6933 64.22 50.28 64.22C49.7067 64.22 49.24 64.1733 48.88 64.08V63.12ZM65.215 61.18C63.5083 61.18 62.2283 60.5933 61.375 59.42C60.535 58.2333 60.115 56.7067 60.115 54.84C60.115 53.5333 60.355 52.3933 60.835 51.42C61.315 50.4333 61.9683 49.68 62.795 49.16C63.6217 48.64 64.5283 48.38 65.515 48.38C67.2483 48.38 68.515 48.94 69.315 50.06C70.115 51.1667 70.515 52.6867 70.515 54.62C70.515 55.9133 70.2817 57.06 69.815 58.06C69.3617 59.0467 68.7283 59.8133 67.915 60.36C67.115 60.9067 66.215 61.18 65.215 61.18ZM65.295 60.16C67.2817 60.16 68.275 58.38 68.275 54.82C68.275 53.0867 68.0483 51.7533 67.595 50.82C67.155 49.8867 66.4083 49.42 65.355 49.42C64.3283 49.42 63.5683 49.8667 63.075 50.76C62.5817 51.64 62.335 52.9067 62.335 54.56C62.335 56.2533 62.5683 57.6133 63.035 58.64C63.515 59.6533 64.2683 60.16 65.295 60.16Z" fill="white"/>
</g>
<defs>
<filter id="filter0_d" x="0" y="0" width="122" height="122" filterUnits="userSpaceOnUse" color-interpolation-filters="sRGB">
<feFlood flood-opacity="0" result="BackgroundImageFix"/>
<feColorMatrix in="SourceAlpha" type="matrix" values="0 0 0 0 0 0 0 0 0 0 0 0 0 0 0 0 0 0 127 0"/>
<feOffset dy="4"/>
<feGaussianBlur stdDeviation="2"/>
<feColorMatrix type="matrix" values="0 0 0 0 0 0 0 0 0 0 0 0 0 0 0 0 0 0 0.25 0"/>
<feBlend mode="normal" in2="BackgroundImageFix" result="effect1_dropShadow"/>
<feBlend mode="normal" in="SourceGraphic" in2="effect1_dropShadow" result="shape"/>
</filter>
</defs>
</svg>
