<svg width="1000" height="1000" viewBox="0 0 1000 1000" fill="none" xmlns="http://www.w3.org/2000/svg">
<path d="M457.71 12.42C452.9 14.09 445.16 18.07 440.77 21.2C421.74 35.21 413.17 51.94 411.29 78.28L410.04 95.84L227.08 171.95C126.5 213.57 40.36 250.58 35.76 253.72C26.56 260.2 14.85 277.77 11.51 290.73C10.26 295.33 9.63001 305.16 10.26 312.69C11.1 324.82 25.52 360.78 142.41 642.64C254.68 913.2 274.96 960.25 281.86 968.19C299.63 988.26 330.16 995.37 356.72 985.54C364.25 982.61 462.31 942.05 574.8 895.42L779.09 810.32H858.13H936.96L949.5 804.47C969.57 794.85 983.16 777.29 987.97 753.87C989.85 745.3 990.27 656.43 989.85 400.5L989.22 58.63L984.62 48.8C978.98 36.25 964.76 22.25 951.59 15.55L941.13 10.53L703.81 10.1101C511.86 9.91007 464.82 10.33 457.71 12.42ZM945.32 32.29C955.78 36.89 966.44 48.81 969.37 59.05C971.04 64.7 971.46 166.11 971.04 412L970.41 757L964.35 767.87C957.24 780.83 946.99 788.36 932.78 791.5C925.67 792.96 849.77 793.17 690.86 792.13L459.6 790.46L450.4 784.19C445.59 780.64 439.11 773.53 436.18 768.51L430.95 759.1L430.32 414.1C429.9 161.52 430.32 66.79 432.2 60.52C435.34 49.02 444.33 38.1501 455.41 32.7101L464.4 28.32H700.68C924.61 28.31 937.37 28.52 945.32 32.29ZM411.08 258.32C411.08 336.52 410.66 400.5 410.45 400.5C410.03 400.5 395.6 392.97 378.46 383.77C347.51 367.04 340.2 364.74 336.43 369.55C335.18 371.01 319.91 420.15 302.56 478.7C273.91 574.05 270.99 585.34 273.91 588.26C275.58 589.93 306.95 607.71 343.54 627.36L410.03 663.32L411.07 713.29C412.12 760.13 412.32 763.89 416.92 772.04C427.38 791.7 442.43 803.82 462.92 809.47C473.38 812.19 491.36 812.4 601.34 811.35C693.76 810.51 726.8 810.72 724.28 812.39C722.19 813.64 635.63 850.03 531.91 893.31C357.74 965.66 342.05 971.72 330.55 971.93C309.85 972.35 296.47 963.15 286.85 942.03C284.13 935.76 224.54 792.74 154.7 624.21C35.76 337.56 27.6 317.07 27.6 305.36C27.39 295.32 28.64 290.93 33.24 282.78C36.59 277.34 42.23 270.86 45.79 268.56C51.65 264.8 405.64 116.55 409.61 116.34C410.45 116.13 411.08 180.12 411.08 258.32ZM380.97 405.94L411.08 422.04V532.65V643.47L402.3 638.24C397.28 635.52 372.19 621.72 346.26 607.92C320.33 593.91 297.54 581.36 295.66 579.9C292.32 577.39 293.99 571.12 315.11 500.86C348.36 390.25 348.36 390.04 349.61 390.04C350.44 390.05 364.45 397.16 380.97 405.94Z" fill="white"/>
<path d="M499.32 68.46C495.77 72.85 467.33 185.13 468.58 189.53C470.25 194.34 479.04 197.06 483.01 193.71C484.47 192.46 487.4 185.76 489.28 178.86C493.25 165.06 494.09 164.64 511.65 167.57C518.76 168.82 519.38 169.45 522.73 181.16C525.45 191.2 527.12 193.71 531.3 194.75C537.15 196.21 542.8 192.66 542.8 187.43C543.01 180.32 514.78 73.05 511.85 69.5C508.1 65.32 502.45 64.91 499.32 68.46ZM512.7 141.64L514.16 149.58H505.38C500.78 149.58 496.81 148.95 496.81 148.33C496.81 146.45 503.08 121.78 504.55 118.22C505.8 114.88 510.61 128.26 512.7 141.64Z" fill="white"/>
<path d="M623.73 305.78C583.59 345.93 548.04 382.52 544.48 387.53C520.02 422.88 524.41 476.61 554.1 506.09C581.91 533.48 627.07 539.55 663.25 520.73L676.63 513.62V519.9C676.63 534.12 662.62 548.54 646.94 550.43C633.77 552.1 632.72 553.77 632.72 571.13C632.72 584.09 633.34 586.81 636.69 588.69C642.96 592.04 763.4 591.62 765.91 588.06C767.16 586.81 768.63 579.7 769.25 572.59C770.51 557.54 767.37 551.05 758.59 551.05C749.81 550.84 736.22 543.73 730.99 536.62C728.48 532.85 725.97 526.16 725.34 521.77L724.09 513.41L737.68 520.52C783.47 544.36 841.81 528.05 862.72 485.39C876.31 457.79 875.89 428.31 861.67 399.45C855.19 386.28 847.45 377.7 778.66 308.91C736.84 267.3 701.3 233.22 699.63 233.22C697.96 233.23 663.88 265.85 623.73 305.78ZM839.72 397.57C849.13 410.74 853.31 426.22 853.31 446.5C853.31 461.76 852.47 465.74 847.45 475.15C839.92 489.58 829.05 500.24 814.83 506.93C804.8 511.53 800.2 512.37 783.27 512.37C764.87 512.37 762.15 511.74 749.4 505.47C740.2 500.87 732.67 495.43 727.66 489.37C719.92 479.75 713.44 477.45 708.42 482.47C706.75 484.14 705.91 492.09 705.91 505.05C705.91 521.57 706.75 526.59 710.93 535.37C716.99 548.33 728.91 559.83 742.08 565.69C747.52 568.2 751.91 570.5 751.91 570.92C751.91 571.55 729.33 571.96 701.73 571.96C674.13 571.96 651.55 571.33 651.76 570.29C651.76 569.45 657.4 566.11 664.1 562.97C677.48 556.7 687.94 545.41 692.54 532.65C696.09 522.61 696.31 485.81 692.96 482.47C688.15 477.66 682.51 479.96 673.52 490C667.45 496.69 659.72 502.34 651.14 506.31C639.64 511.54 635.67 512.37 618.11 512.37C594.27 512.37 584.03 508.4 568.14 493.55C553.5 479.96 548.07 465.74 548.07 441.28C548.07 408.66 545.77 411.59 628.36 328.79L700.71 256.23L767.2 322.51C803.76 359.1 836.38 392.77 839.72 397.57Z" fill="white"/>
<path d="M859.59 628.41C856.03 632.38 856.25 634.26 870.88 690.51C879.03 722.29 886.77 749.68 888.23 751.15C891.79 755.54 900.15 754.49 902.45 749.06C903.5 746.55 908.72 727.52 913.95 706.82C918.97 686.12 925.24 662.7 927.54 654.55C933.18 634.69 932.98 628.83 926.49 625.9C919.38 622.76 914.99 626.94 910.81 641.58L907.47 652.45L894.5 653.08L881.75 653.71L878.41 642C873.18 624.65 867.11 620.05 859.59 628.41ZM902.45 674.83C902.45 676.29 900.57 684.03 898.48 692.18L894.72 706.82L891.38 695.32C884.27 671.07 884.27 672.32 893.89 672.32C899.32 672.32 902.45 673.16 902.45 674.83Z" fill="white"/>
<path d="M98.07 287.8C84.9 291.77 72.35 309.96 72.35 325.02C72.35 333.8 95.98 388.58 103.09 396.53C116.89 411.79 135.71 414.51 152.02 403.64C173.56 389.42 173.56 357.22 152.02 343C137.38 333.17 121.28 334.22 107.9 345.3L101.84 350.53L98.49 343C88.87 319.79 89.71 312.68 102.88 307.24C112.92 303.06 119.82 305.36 125.88 314.98C131.53 323.97 136.75 325.23 141.98 319.37C146.58 314.35 146.37 311.42 141.35 303.48C133.61 290.94 112.7 283.2 98.07 287.8ZM144.48 359.1C148.87 362.86 149.92 365.79 150.13 373.11C150.34 385.03 143.02 392.14 131.31 392.14C122.11 391.93 117.3 388.79 114.16 380.85C110.81 371.65 111.65 367.05 118.13 360.57C125.87 352.83 136.54 352.41 144.48 359.1Z" fill="white"/>
</svg>
