<svg width="1200" height="320" viewBox="0 0 1200 320" fill="none" xmlns="http://www.w3.org/2000/svg">
<path d="M76.7552 85.1328C76.2805 84.5533 75.6317 83.6103 74.8087 82.3037C73.9858 80.9971 73.3633 79.9223 72.9411 79.0793L75.4385 77.718C76.3248 79.2143 77.4588 80.663 78.8405 82.0642C80.2327 83.4969 81.609 84.6188 82.9692 85.4296L82.9851 85.477L83.477 88.5284L56.7293 97.4615L58.2665 103.485L55.9427 104.261L50.2407 87.1879L52.5645 86.4118L55.0346 92.3871L76.7552 85.1328Z" fill="white" fill-opacity="0.6"/>
<path d="M1152.16 93.8389C1151.11 96.3261 1149.59 98.2161 1147.6 99.5089C1145.58 100.758 1143.32 101.411 1140.8 101.468C1138.26 101.481 1135.69 100.936 1133.08 99.8338C1129.21 98.1994 1126.04 95.7582 1123.58 92.5102C1121.08 89.2492 1119.41 85.7191 1118.55 81.92C1117.68 78.0772 1117.64 74.5167 1118.45 71.2386L1120.88 71.0159C1120.5 75.0884 1121.12 78.9172 1122.76 82.5022C1124.36 86.0742 1126.66 89.0188 1129.66 91.3362C1129.1 90.1923 1128.79 88.8152 1128.75 87.2047C1128.67 85.5812 1129.01 83.879 1129.77 82.0981C1131.12 78.9047 1133.08 76.8592 1135.67 75.9616C1138.27 75.0333 1141.23 75.2696 1144.54 76.6706C1146.78 77.6175 1148.67 78.9755 1150.2 80.7445C1151.72 82.4699 1152.68 84.4849 1153.08 86.7895C1153.49 89.0633 1153.19 91.4132 1152.16 93.8389ZM1132.04 84.6862C1131.34 86.3443 1131.1 87.9803 1131.32 89.5943C1131.51 91.1952 1131.94 92.423 1132.59 93.2775C1133.3 93.6502 1133.88 93.9338 1134.35 94.1284C1138.02 95.7901 1141.27 96.5829 1144.09 96.507C1146.91 96.4311 1148.85 95.1189 1149.93 92.5703C1150.53 91.1578 1150.6 89.7787 1150.16 88.4329C1149.68 87.0741 1148.84 85.8661 1147.62 84.8088C1146.41 83.7208 1145.03 82.8461 1143.46 82.1845C1140.42 80.9004 1137.96 80.528 1136.06 81.0675C1134.18 81.5762 1132.84 82.7824 1132.04 84.6862Z" fill="white" fill-opacity="0.6"/>
<path d="M185.58 250.869C189.102 250.888 192.532 250.567 195.869 249.904C199.223 249.212 202.147 248.197 204.641 246.86C207.164 245.539 208.956 243.953 210.016 242.101C210.926 240.51 211.17 238.979 210.745 237.506C210.337 236.005 209.251 234.75 207.486 233.739C205.837 232.795 204.229 232.316 202.662 232.303C201.112 232.26 199.557 232.426 197.998 232.801L197.727 230.054C199.419 229.447 201.478 229.205 203.905 229.327C206.348 229.42 208.64 230.079 210.781 231.305C212.806 232.464 214.297 233.817 215.255 235.364C216.23 236.883 216.71 238.425 216.697 239.992C216.683 241.559 216.27 243.051 215.459 244.469C213.819 247.333 210.756 249.496 206.269 250.96C201.798 252.396 196.807 253.129 191.296 253.162L205.319 259.865L208.974 257.003L210.938 258.704L205.885 264.914L185.187 253.064L185.58 250.869Z" fill="white" fill-opacity="0.6"/>
<path d="M457.85 298.05C457.083 298.05 456.233 297.983 455.3 297.85C454.367 297.75 453.583 297.617 452.95 297.45V294.6C454.05 294.933 455.367 295.1 456.9 295.1C459.533 295.1 461.8 294.683 463.7 293.85C465.633 293.017 467.1 291.883 468.1 290.45C469.133 289.017 469.65 287.45 469.65 285.75C469.65 283.483 468.95 281.733 467.55 280.5C466.183 279.233 464.067 278.583 461.2 278.55L459.65 278.95C458.55 279.283 458.017 279.433 458.05 279.4L457.2 276.75C458.6 276.483 459.917 276.083 461.15 275.55C463.217 274.683 464.883 273.533 466.15 272.1C467.417 270.633 468.05 269.083 468.05 267.45C468.05 265.55 467.483 264.167 466.35 263.3C465.25 262.4 463.833 261.95 462.1 261.95C460.6 261.95 459.15 262.217 457.75 262.75C456.383 263.283 455.2 263.933 454.2 264.7L452.85 262.45C453.783 261.517 455.267 260.617 457.3 259.75C459.367 258.85 461.467 258.4 463.6 258.4C466.633 258.4 469.083 259.067 470.95 260.4C472.817 261.7 473.75 263.7 473.75 266.4C473.75 268.767 472.817 270.917 470.95 272.85C469.083 274.783 466.867 276.2 464.3 277.1C464.633 277.067 465.1 277.05 465.7 277.05C467.667 277.05 469.4 277.417 470.9 278.15C472.4 278.883 473.55 279.883 474.35 281.15C475.183 282.383 475.6 283.783 475.6 285.35C475.6 287.783 474.867 289.967 473.4 291.9C471.933 293.833 469.85 295.333 467.15 296.4C464.483 297.5 461.383 298.05 457.85 298.05Z" fill="white" fill-opacity="0.6"/>
<path d="M742.75 291H726.15L724.85 288.75C726.817 285.017 729.233 280.083 732.1 273.95C734.967 267.783 737.533 262.133 739.8 257H741.1L745.1 259.15L731.6 285.15L729.6 288.2L742.75 287.5L742.95 277.75L747.2 277.4V287.25L754.25 286.9V291H747.2V299.05H742.75V291Z" fill="white" fill-opacity="0.6"/>
<path d="M1007.87 262.291C1008.66 261.781 1009.47 261.189 1010.3 260.517C1012.13 259.025 1013.51 257.285 1014.43 255.295C1015.35 253.305 1015.71 251.293 1015.52 249.258C1015.33 247.224 1014.55 245.366 1013.18 243.684C1009.8 239.517 1006.18 238.999 1002.32 242.129C1001.47 242.823 1000.62 243.729 999.766 244.849C998.92 245.923 998.246 246.943 997.742 247.909L996.096 248.023L986.653 232.503L997.717 223.522L997.506 222.47L999.913 220.516L1002.46 225.082L992.173 233.432L997.73 243.927C998.134 242.997 998.764 241.949 999.62 240.782C1000.48 239.615 1001.45 238.59 1002.53 237.708C1005.02 235.691 1007.54 234.804 1010.1 235.046C1012.66 235.288 1015.02 236.742 1017.18 239.407C1018.84 241.452 1019.78 243.824 1020 246.525C1020.24 249.204 1019.71 251.933 1018.4 254.712C1017.09 257.491 1015.07 259.994 1012.32 262.221C1011.21 263.124 1010.23 263.769 1009.38 264.155L1007.87 262.291Z" fill="white" fill-opacity="0.6"/>
<line x1="143.837" y1="154.245" x2="82.8368" y2="195.245" stroke="white" stroke-opacity="0.6" stroke-width="3"/>
<line y1="-1.5" x2="73.4983" y2="-1.5" transform="matrix(0.829951 0.557836 0.557836 -0.829951 1058 152)" stroke="white" stroke-opacity="0.6" stroke-width="3"/>
<line x1="313.5" y1="315" x2="313.5" y2="245" stroke="white" stroke-opacity="0.6" stroke-width="3"/>
<line x1="598.5" y1="315" x2="598.5" y2="245" stroke="white" stroke-opacity="0.6" stroke-width="3"/>
<line x1="883.5" y1="315" x2="883.5" y2="245" stroke="white" stroke-opacity="0.6" stroke-width="3"/>
</svg>
